<?xml version="1.0"?>
<svg xmlns="http://www.w3.org/2000/svg" xmlns:xlink="http://www.w3.org/1999/xlink" xmlns:svgjs="http://svgjs.com/svgjs" version="1.1" width="512" height="512" x="0" y="0" viewBox="0 0 98.258 98.258" style="enable-background:new 0 0 512 512" xml:space="preserve" class=""><g transform="matrix(1,0,0,1,1.4210854715202004e-14,7.105427357601002e-15)">
<g xmlns="http://www.w3.org/2000/svg">
	<g>
		<path d="M22.332,37.353c10.3,0,18.678-8.378,18.678-18.678S32.632,0,22.332,0C12.032,0,3.654,8.378,3.654,18.678    C3.654,28.978,12.032,37.353,22.332,37.353z" fill="#000000" data-original="#000000" style="" class=""/>
		<path d="M22.332,98.256c10.3,0,18.678-8.379,18.678-18.678c0-10.301-8.378-18.676-18.678-18.676    c-10.3,0-18.678,8.379-18.678,18.678C3.654,89.881,12.032,98.256,22.332,98.256z" fill="#000000" data-original="#000000" style="" class=""/>
		<path d="M75.928,0.001c-10.301,0-18.679,8.377-18.679,18.677c0,10.3,8.378,18.678,18.679,18.678    c10.299,0,18.676-8.378,18.676-18.678C94.604,8.378,86.227,0.001,75.928,0.001z" fill="#000000" data-original="#000000" style="" class=""/>
		<path d="M94.604,79.58c0-10.299-8.377-18.678-18.678-18.678c-10.3,0-18.678,8.379-18.678,18.678    c0,10.301,8.378,18.678,18.678,18.678C86.227,98.258,94.604,89.877,94.604,79.58z" fill="#000000" data-original="#000000" style="" class=""/>
	</g>
</g>
<g xmlns="http://www.w3.org/2000/svg">
</g>
<g xmlns="http://www.w3.org/2000/svg">
</g>
<g xmlns="http://www.w3.org/2000/svg">
</g>
<g xmlns="http://www.w3.org/2000/svg">
</g>
<g xmlns="http://www.w3.org/2000/svg">
</g>
<g xmlns="http://www.w3.org/2000/svg">
</g>
<g xmlns="http://www.w3.org/2000/svg">
</g>
<g xmlns="http://www.w3.org/2000/svg">
</g>
<g xmlns="http://www.w3.org/2000/svg">
</g>
<g xmlns="http://www.w3.org/2000/svg">
</g>
<g xmlns="http://www.w3.org/2000/svg">
</g>
<g xmlns="http://www.w3.org/2000/svg">
</g>
<g xmlns="http://www.w3.org/2000/svg">
</g>
<g xmlns="http://www.w3.org/2000/svg">
</g>
<g xmlns="http://www.w3.org/2000/svg">
</g>
</g></svg>
